<?xml version="1.0" encoding="utf-8"?>
<!-- Generator: Adobe Illustrator 19.1.0, SVG Export Plug-In . SVG Version: 6.00 Build 0)  -->
<svg version="1.1" id="combined_logo" xmlns="http://www.w3.org/2000/svg" xmlns:xlink="http://www.w3.org/1999/xlink" x="0px"
	 y="0px" viewBox="0 0 560 110" style="enable-background:new 0 0 560 110;" xml:space="preserve">
<style type="text/css">
	.st0{fill:#FFFFFF;}
</style>
<path id="a_1_" class="st0" d="M546.9,82.5c-0.2,1.2,0.4,1.5,0.9,1.5h2.9c1,0,1.3-1,1.3-1.5l0,0l7.9-45c-5.7-2.1-12.3-3.2-16.8-3.2
	c-13.1,0-18.4,5.2-20.7,18l-3.7,20.9c-0.2,1.3-0.3,2.5-0.3,3.6c0,6,3.4,8.2,9.6,8.2c7,0,14-3.3,19.6-8.1L546.9,82.5z M528.6,80
	c-3,0-4.5-0.8-4.5-3.9c0-0.8,0.1-1.7,0.3-2.9l3.5-19.9c1.9-10.7,5.4-14,14.5-14c4,0,8.7,0.8,11.4,1.6l-5.2,29.5
	C542.3,76,534.7,80,528.6,80z"/>
<path id="t" class="st0" d="M516.6,39.4L516.6,39.4l0.7-3.2c0.2-0.9-0.2-0.8-0.7-0.8h-13.7l1.9-11.2l0,0c0.2-1.2-0.6-1.4-1.2-1.3
	l0,0l-3.1,0.4l0,0c-0.9,0.1-1.3,0.9-1.3,1.3l0,0l-1.9,10.7h-8.5c-0.2,0-0.9,0.1-1.1,0.8l-0.5,3.1l0,0c0,0.3,0,0.9,0.8,0.9h8.3
	l-6.4,36.4c-0.1,0.7-0.2,1.3-0.2,1.9c0,4.4,3.1,6.5,8,6.5c3.8,0,10.7-1.1,14.1-2.8c1-0.6,0.9-1.3,0.7-1.8l0,0l-0.7-2
	c-0.2-0.4-0.7-0.4-1.1-0.3v0c-3.3,1.3-5.2,2-12,2c-2.3,0-3.3-0.5-3.3-2.4c0-0.5,0.1-1.1,0.2-1.8l6.3-35.8h13.6
	C516.2,40.1,516.5,39.8,516.6,39.4z"/>
<path id="a" class="st0" d="M467.1,82.5c-0.2,1.2,0.4,1.5,0.9,1.5h2.9c1,0,1.3-1,1.3-1.5l0,0l7.9-45c-5.7-2.1-12.3-3.2-16.8-3.2
	c-13.1,0-18.4,5.2-20.7,18l-3.7,20.9c-0.2,1.3-0.3,2.5-0.3,3.6c0,6,3.4,8.2,9.6,8.2c7,0,14-3.3,19.6-8.1L467.1,82.5z M448.9,80
	c-3,0-4.5-0.8-4.5-3.9c0-0.8,0.1-1.7,0.3-2.9l3.5-19.9c1.9-10.7,5.4-14,14.5-14c4,0,8.7,0.8,11.4,1.6l-5.2,29.5
	C462.6,76,455,80,448.9,80z"/>
<path id="d" class="st0" d="M417.8,82.5c-0.2,1.2,0.4,1.5,0.9,1.5h2.9c1,0,1.3-1,1.3-1.5l11.7-66.3c0.2-1.2-0.6-1.4-1.2-1.3l0,0
	l-3.1,0.4c-0.9,0.1-1.3,0.9-1.3,1.3l0,0L425.6,36c-3-0.9-8.6-1.6-11.8-1.6c-12.4,0-18.4,4.8-20.7,18l-3.7,20.9
	c-0.2,1.3-0.3,2.5-0.3,3.6c0,6,3.4,8.2,9.6,8.2c7,0,14.3-3.3,19.9-8.1L417.8,82.5z M399.2,80c-3,0-4.5-0.8-4.5-3.9
	c0-0.8,0.1-1.7,0.3-2.9l3.5-19.9c1.9-10.8,5.6-14,14.5-14c3.9,0,7.8,0.6,11.7,1.6l-5.2,29.5C413.2,76,405.4,80,399.2,80z"/>
<path id="x" class="st0" d="M385.4,35.4h-14c-0.6,0-1.4,0.5-1.6,0.9l-9.9,14.4l-5.8-15c-0.3-0.8-1.1-1.1-1.7-1l-12.2,1.8l10.5,23.1
	L331.4,84h13.1c0.9,0,2.1-0.4,2.8-1.2l9.1-10.9l5.1,10.9c0.3,0.6,1.1,1.2,1.9,1.2h12.8l-10.3-22.6L385.4,35.4z"/>
<path id="u" class="st0" d="M325.3,83.1l8.3-47.6c0.2-1-0.6-1-1.2-0.9l-11.7,1.6c-1.3,0.2-1.6,1.1-1.7,1.6l0,0l-5.1,28.9
	c-3.6,1.8-10,4.6-12.6,4.6c-1.4,0-1.9-0.5-1.9-1.5c0-0.4,0.1-1,0.2-1.5l5.7-32.8v0c0.2-1-0.6-1-1.1-0.9l-11.6,1.6h0
	c-1.3,0.2-1.6,1.1-1.7,1.6l0,0l-5.6,31.7c-0.3,2-0.5,3.6-0.5,5.6c0,6.1,2.5,9.9,8.9,9.9c5.6,0,11.6-1.9,19.2-5.5l0.1,3.6
	c0,0.3,0.1,0.9,0.6,0.9h10.8C325,84,325.3,83.5,325.3,83.1z"/>
<path id="fl" class="st0" d="M273.8,81.8l11.8-67.2c0.2-1-0.4-1-0.9-0.9l-13.5,2.2c-6.1-1.7-13-2.4-17-2.4
	c-12.5,0-16.7,4.3-18.7,15.5l-1.1,6.4H229c-1.5,0-1.6,0.7-1.7,1.3l0,0l-1.6,9.4c-0.1,0.4,0.1,0.8,0.7,0.8h6.1L225.9,84
	c-0.8,4.4-1.4,7-5.6,11.4h0c-0.8,0.8-0.6,1.1,0,1.6l0,0l7.4,6.9l0,0c0.8,0.7,1.1,0.5,1.9-0.3c6.8-6.9,9-11.5,10.1-18l6.8-38.7h10.8
	c0.6,0,0.8,0,1-0.8l0,0l2.6-9.8l0,0c0.2-0.7-0.5-0.9-1-0.9h-11.4l1.3-7.1c0.5-2.5,1.5-3.3,4.7-3.3c4.2,0,11,0.8,14.8,1.8l-9.6,55
	l0,0c-0.4,2-0.2,2.2,1.5,2.2h10.4C272.8,84,273.4,84,273.8,81.8z"/>
<path id="n" class="st0" d="M209.6,34.4c-5.6,0-11.6,1.9-19.2,5.5l0.1-4.3c0-1.1-0.8-0.9-1.4-0.8l-9.1,1.5l0,0
	c-1.5,0.3-2,1.2-2.1,1.7l-7.7,43.9l0,0c-0.4,2-0.2,2.2,1.5,2.2h10.4c1.2,0,1.8,0,2.2-2.2l5.1-29.2c3.8-2,10-4.6,12.6-4.6
	c1.4,0,1.9,0.4,1.9,1.4c0,0.4-0.1,0.9-0.2,1.5l-5.4,30.9l0,0c-0.4,2-0.2,2.2,1.5,2.2h10.4c1.2,0,1.8,0,2.2-2.2l5.6-32
	c0.4-2.5,0.5-3.9,0.5-5.6C218.5,38.1,216.1,34.4,209.6,34.4z"/>
<path id="i" class="st0" d="M170.4,13.8l-2.3,12.6c-0.3,1.6-0.6,1.6-1.7,1.8l-11.5,1.6c-1.3,0.2-1.4,0.2-1.2-1.3l2.1-12.2
	c0.1-0.4,0.4-1.3,1.7-1.5l11.7-1.6C170.3,13,170.5,13.1,170.4,13.8z M165.3,34.6l-11.7,1.6c-1.3,0.2-1.6,1.1-1.7,1.6v0l-7.8,44.3
	c-0.3,1.7-0.1,1.9,1.5,1.9h10.4c1.2,0,1.8,0,2.2-2.2l0,0l8.2-46.3C166.7,34.5,165.9,34.6,165.3,34.6z"/>
<path id="cuboctahedron" class="st0" d="M108.1,66.4L97.6,20.7c-0.6-2.5-2.9-5-5.3-5.7L44.4,0.3c-0.6-0.2-1.3-0.3-2-0.3
	c-2.1,0-4.2,0.8-5.6,2L2.4,33.9c-1.8,1.7-2.9,5-2.3,7.4l11.2,48.9c0.6,2.5,2.9,5,5.3,5.7l44.8,13.8c0.6,0.2,1.3,0.3,2,0.3
	c2.1,0,4.2-0.8,5.6-2l36.8-34.1C107.7,72.1,108.7,68.9,108.1,66.4z M49.3,11.2l32.8,10.1c1.3,0.4,1.3,1,0,1.3l-17.3,4
	c-1.3,0.3-3.1-0.3-4-1.2l-12.1-13C47.7,11.3,48,10.8,49.3,11.2z M69.8,70.2c0.3,1.3-0.5,2.1-1.8,1.7L32.5,60.9
	c-1.3-0.4-1.5-1.5-0.5-2.4l27.2-25.2c1-0.9,2-0.6,2.3,0.7L69.8,70.2z M11.3,37.9l28.8-26.8c1-0.9,2.5-0.9,3.5,0.1l14.5,15.6
	c0.9,1,0.9,2.5-0.1,3.5L29.1,57.1c-1,0.9-2.5,0.9-3.5-0.1L11.2,41.4C10.3,40.4,10.4,38.8,11.3,37.9z M18.3,80.5L10.7,47
	c-0.3-1.3,0.2-1.6,1.1-0.6l12.1,13c0.9,1,1.3,2.8,0.9,4.1l-5.2,17C19.2,81.8,18.6,81.8,18.3,80.5z M60.5,100L22.9,88.4
	c-1.3-0.4-2-1.8-1.6-3.1l6.3-20.3c0.4-1.3,1.8-2,3.1-1.6L68.2,75c1.3,0.4,2,1.8,1.6,3.1l-6.3,20.3C63.2,99.7,61.8,100.4,60.5,100z
	 M93.9,72.7L68.7,96c-1,0.9-1.5,0.6-1.1-0.7l5.2-17c0.4-1.3,1.8-2.6,3.1-2.9l17.3-4C94.6,71.2,94.9,71.7,93.9,72.7z M96.7,67.7
	l-20.7,4.7c-1.3,0.3-2.6-0.5-2.9-1.8l-8.8-38.3c-0.3-1.3,0.5-2.6,1.8-2.9l20.7-4.7c1.3-0.3,2.6,0.5,2.9,1.8l8.8,38.3
	C98.8,66.1,98,67.4,96.7,67.7z"/>
</svg>
