<?xml version="1.0" encoding="utf-8"?>
<!-- Generator: Adobe Illustrator 19.1.0, SVG Export Plug-In . SVG Version: 6.00 Build 0)  -->
<svg version="1.1" id="combined_logo" xmlns="http://www.w3.org/2000/svg" xmlns:xlink="http://www.w3.org/1999/xlink" x="0px"
	 y="0px" viewBox="10 306 576 110" style="enable-background:new 10 306 576 110;" xml:space="preserve">
<style type="text/css">
	.st0{fill:#68707C;}
	.st1{fill:#FFFFFF;}
</style>
<path id="i" class="st0" d="M155.8,338.4l13.5-1.9l-9.5,54.1h-13.1L155.8,338.4z M159.8,315.7l13.5-1.9l-2.6,14.9l-13.5,2
	L159.8,315.7z"/>
<path id="n" class="st0" d="M210.5,352.8c0.1-0.5,0.1-1.2,0.1-1.4c0-1.4-0.7-2.3-2.7-2.3c-3.5,0-10.9,3.3-15.9,6.2l-6.2,35.4h-13.1
	l9.2-52.2l11.4-2L193,343c7-3.8,15.3-6.7,21.5-6.7c7.3,0,9.7,4.8,9.7,10.6c0,2.1-0.2,3.5-0.5,5.2l-6.8,38.5h-13.1L210.5,352.8z"/>
<path id="fl" class="st0" d="M266,348.2h-12.2l-8,45.1c-1.5,8.6-4.7,14-11.6,20.1l-8.4-7.9c4.3-4.2,6.1-7.7,7.1-13.5l7.8-43.9h-8.2
	l1.9-10.7h8.2l1.3-7.7c2-11.3,6.6-16.3,20-16.3c4.4,0,10.1,0.7,16.7,2.2l13.5-1.9l-13.6,76.9h-13.1l11.5-65.1
	c-5.4-1-10.6-1.6-14.8-1.6c-4.6,0-6.3,1.5-7,5.2l-1.4,8.2h13.2L266,348.2z"/>
<path id="u" class="st0" d="M308.7,375.4c-0.1,0.8-0.1,1.2-0.1,1.4c0,1.4,0.7,2.3,2.7,2.3c3.5,0,10.9-3.3,15.9-6.2l6-34.4l13.5-1.9
	l-9.5,54.1h-11.2l0.2-5.6c-7,3.8-15.3,6.7-21.5,6.7c-7.3,0-9.7-4.8-9.7-10.6c0-2.1,0.2-3.5,0.5-5.2l6.6-37.5l13.5-1.9L308.7,375.4z"
	/>
<path id="x" class="st0" d="M366.4,363.9l-11.5-25l12.2-2.3l8,18.9l13.1-18h14.1l-21.8,28.1l11.7,25.2h-13.2l-7.3-15.4L359,390.7
	h-14L366.4,363.9z"/>
<path id="d" class="st0" d="M433.4,382.9c-6.1,5.2-14.1,8.9-21.8,8.9c-6.8,0-10.5-2.4-10.5-9c0-1.2,0.1-2.5,0.3-3.9l4-22.9
	c2.5-14.4,9.1-19.7,22.6-19.7c3.5,0,9.6,0.8,12.9,1.7l3.9-22.4l6.2-0.9l-13.3,75.9h-5.6L433.4,382.9z M440.1,343.6
	c-4.3-1.1-8.5-1.7-12.8-1.7c-9.7,0-13.8,3.5-15.9,15.3l-3.8,21.8c-0.2,1.3-0.3,2.3-0.3,3.2c0,3.4,1.6,4.3,4.9,4.3
	c6.8,0,15.3-4.4,22.2-10.5L440.1,343.6z"/>
<path id="o" class="st0" d="M454.2,376.9c0-1.5,0.1-3.2,0.4-4.8l2.8-16.2c2.1-11.7,8.2-19.6,23.9-19.6c11.8,0,17.7,6.1,17.7,15
	c0,1.3-0.2,2.6-0.4,4l-3.1,17.4c-2.1,11.8-8.6,19-23.9,19C459.1,391.8,454.2,385.5,454.2,376.9z M492.6,355.4
	c0.2-1.3,0.3-2.5,0.3-3.7c0-6.6-3.8-9.8-12.5-9.8c-10.1,0-15.2,4.8-16.8,14.1l-3,16.7c-0.2,1.4-0.3,2.8-0.3,4
	c0,6.2,3.4,9.6,12.4,9.6c9.8,0,15.2-4.6,16.8-13.7L492.6,355.4z"/>
<path id="c" class="st0" d="M543.6,343.7c-4.2-1.2-8.9-1.9-12.6-1.9c-9.7,0-13.2,3.5-15.3,15.3l-3.7,21.2c-0.1,0.9-0.2,1.6-0.2,2.4
	c0,4.2,2.6,5.6,7.9,5.6c5.2,0,11.2-1.2,17.3-3.7l1,5.1c-5.7,2.5-12,4-19,4c-7.9,0-13.2-3.7-13.2-10.9c0-1,0.1-2.2,0.3-3.3l3.8-21.5
	c2.6-14.4,8.2-19.7,21.9-19.7c4.2,0,10,1,13.2,2.2L543.6,343.7z"/>
<path id="a" class="st0" d="M545.5,389.1l1.3-5c4.4,1.4,10.1,2.3,14.1,2.3c9,0,11.2-1.2,12.4-8.7c0.9-5.5-0.8-6.8-9.8-11.6
	c-10.3-5.5-13.3-8.3-12-16.8c1.3-8.3,5-12.8,18.5-12.8c4.7,0,10.7,0.9,14.8,2.2l-1.1,5.1c-4.3-1.1-10.1-1.9-14-1.9
	c-9,0-10.8,1.3-12,7.9c-1.1,6.1,0.9,7.3,8.4,11.5c12.6,6.9,14.7,9.1,13.2,17.4c-1.5,9.2-4.6,13.2-18.5,13.2
	C555.9,391.8,549.6,390.8,545.5,389.1z"/>
<g id="cuboctahedorn">
	<path class="st0" d="M25.8,401.4c-1.8-0.6-3.6-2.5-4.1-4.4l-11.6-50.7c-0.4-1.8,0.4-4.4,1.8-5.7l35.7-33.2c1.4-1.3,4-1.9,5.8-1.3
		l49.7,15.3c1.8,0.6,3.6,2.5,4.1,4.4l10.9,47.5c0.4,1.8-0.4,4.4-1.8,5.7l-38.1,35.4c-1.4,1.3-4,1.9-5.8,1.3L25.8,401.4z"/>
	<path class="st1" d="M79.6,383.8c0.4-1.3-0.3-2.6-1.6-3l-37.2-11.4c-1.3-0.4-2.6,0.3-3,1.6l-6.2,20.1c-0.4,1.3,0.3,2.6,1.6,3
		l37.2,11.4c1.3,0.4,2.6-0.3,3-1.6L79.6,383.8z"/>
	<path class="st1" d="M53.7,317.8c-0.9-1-2.4-1-3.4-0.1l-28.5,26.5c-1,0.9-1,2.4-0.1,3.4l14.3,15.4c0.9,1,2.4,1,3.4,0.1l28.5-26.5
		c1-0.9,1-2.4,0.1-3.4L53.7,317.8z"/>
	<path class="st1" d="M99.2,332.7c-0.3-1.3-1.6-2.1-2.9-1.8l-20.5,4.7c-1.3,0.3-2.1,1.6-1.8,2.9l8.7,37.9c0.3,1.3,1.6,2.1,2.9,1.8
		l20.5-4.7c1.3-0.3,2.1-1.6,1.8-2.9L99.2,332.7z"/>
	<path class="st1" d="M85.7,381.3c-1.3,0.3-2.7,1.6-3.1,2.8l-5.2,16.8c-0.4,1.3,0.1,1.6,1.1,0.7l24.9-23.1c1-0.9,0.7-1.4-0.6-1.1
		L85.7,381.3z"/>
	<path class="st1" d="M22.2,352.6c-0.9-1-1.4-0.7-1.1,0.6l7.6,33.1c0.3,1.3,0.9,1.3,1.2,0l5.2-16.8c0.4-1.3,0-3.1-0.9-4.1
		L22.2,352.6z"/>
	<path class="st1" d="M59.3,317.7c-1.3-0.4-1.6,0.1-0.7,1.1l12,12.9c0.9,1,2.7,1.5,4,1.2l17.1-3.9c1.3-0.3,1.3-0.9,0-1.2L59.3,317.7
		z"/>
	<path class="st1" d="M71.4,340.2c-0.3-1.3-1.3-1.6-2.3-0.7l-26.9,25c-1,0.9-0.7,2,0.5,2.4l35.1,10.8c1.3,0.4,2.1-0.3,1.8-1.6
		L71.4,340.2z"/>
</g>
</svg>
