<?xml version="1.0" encoding="utf-8"?>
<!-- Generator: Adobe Illustrator 19.1.0, SVG Export Plug-In . SVG Version: 6.00 Build 0)  -->
<svg version="1.1" id="Layer_2" xmlns="http://www.w3.org/2000/svg" xmlns:xlink="http://www.w3.org/1999/xlink" x="0px" y="0px"
	 viewBox="0 0 900 1000" style="enable-background:new 0 0 900 1000;" xml:space="preserve">
<style type="text/css">
	.st0{fill:#181C23;}
	.st1{opacity:0.3;}
	.st2{fill:#1F242D;}
	.st3{fill:none;}
	.st4{opacity:0.2;}
	.st5{opacity:0.7;fill:#262B35;}
	.st6{opacity:0.15;}
	.st7{opacity:0.2;fill:#262B35;}
	.st8{opacity:0.13;}
	.st9{opacity:0.6;}
	.st10{opacity:0.5;}
	.st11{opacity:0.5;fill:#262B35;}
	.st12{opacity:0.4;}
	.st13{fill:none;stroke:#262B35;stroke-linecap:round;stroke-linejoin:round;stroke-miterlimit:10;}
</style>
<rect class="st0" width="900" height="1000"/>
<g class="st1">
	<polygon class="st2" points="554.8,324.1 509.4,161.7 714.5,33 	"/>
	<polygon class="st3" points="554.8,324.1 779.3,279.6 712.3,172.5 	"/>
	<polygon class="st3" points="779.3,279.6 714.5,33 712.3,172.5 	"/>
	<polygon class="st4" points="554.8,324.1 609.7,404.6 779.3,279.6 	"/>
	<polygon class="st5" points="609.7,404.6 456.7,683.5 779.3,279.6 	"/>
	<path class="st3" d="M509.4,161.7c0,0-128.9,319.7-125.1,316.3s170.5-153.9,170.5-153.9L509.4,161.7z"/>
	<polygon class="st3" points="456.7,683.5 502.6,967 558.4,865.3 	"/>
	<polygon class="st6" points="384.3,478 554.8,324.1 504.3,509.2 	"/>
	<polygon class="st2" points="707.8,819.4 502.6,967 558.4,865.3 	"/>
	<polygon class="st7" points="654.2,605.7 456.7,683.5 779.3,279.6 	"/>
	<polygon class="st8" points="707.8,819.4 456.7,683.5 558.4,865.3 	"/>
	<polygon class="st3" points="654.2,605.7 707.8,819.4 456.7,683.5 	"/>
	<g class="st4">
		<polygon class="st9" points="554.8,324.1 712.3,172.5 714.5,33 		"/>
		<polygon class="st10" points="554.8,324.1 456.7,683.5 609.7,404.6 		"/>
		<polygon points="707.8,819.4 654.2,605.7 779.3,279.6 		"/>
	</g>
	<polygon class="st3" points="779.3,279.6 891.8,372.2 737.4,595.8 	"/>
	<polygon class="st11" points="707.8,819.4 737.4,595.8 891.8,372.2 	"/>
</g>
<g class="st12">
	<polygon class="st13" points="554.8,324.1 509.4,161.7 714.5,33 	"/>
	<polygon class="st13" points="554.8,324.1 779.3,279.6 712.3,172.5 	"/>
	<polygon class="st13" points="779.3,279.6 714.5,33 712.3,172.5 	"/>
	<polygon class="st13" points="554.8,324.1 609.7,404.6 779.3,279.6 	"/>
	<polygon class="st13" points="609.7,404.6 456.7,683.5 779.3,279.6 	"/>
	<path class="st13" d="M509.4,161.7c0,0-128.9,319.7-125.1,316.3s170.5-153.9,170.5-153.9L509.4,161.7z"/>
	<polygon class="st13" points="384.3,478 554.8,324.1 504.3,509.2 	"/>
	<polygon class="st13" points="456.7,683.5 502.6,967 558.4,865.3 	"/>
	<polygon class="st13" points="707.8,819.4 502.6,967 558.4,865.3 	"/>
	<polygon class="st13" points="654.2,605.7 456.7,683.5 779.3,279.6 	"/>
	<polygon class="st13" points="707.8,819.4 456.7,683.5 558.4,865.3 	"/>
	<polygon class="st13" points="654.2,605.7 707.8,819.4 456.7,683.5 	"/>
	<polygon class="st13" points="554.8,324.1 712.3,172.5 714.5,33 	"/>
	<polygon class="st13" points="554.8,324.1 456.7,683.5 609.7,404.6 	"/>
	<polygon class="st13" points="707.8,819.4 654.2,605.7 779.3,279.6 	"/>
	<polygon class="st13" points="779.3,279.6 891.8,372.2 737.4,595.8 	"/>
	<polygon class="st13" points="707.8,819.4 737.4,595.8 891.8,372.2 	"/>
</g>
</svg>
