<?xml version="1.0" encoding="utf-8"?>
<!-- Generator: Adobe Illustrator 19.1.0, SVG Export Plug-In . SVG Version: 6.00 Build 0)  -->
<svg version="1.1" id="Layer_2" xmlns="http://www.w3.org/2000/svg" xmlns:xlink="http://www.w3.org/1999/xlink" x="0px" y="0px"
	 viewBox="0 0 1000 1500" style="enable-background:new 0 0 1000 1500;" xml:space="preserve">
<style type="text/css">
	.st0{fill:#181C23;}
	.st1{display:none;}
	.st2{display:inline;fill:none;stroke:#262B35;stroke-width:2;stroke-miterlimit:10;}
	.st3{fill:none;stroke:#1F242D;stroke-linecap:round;stroke-linejoin:round;stroke-miterlimit:10;}
	.st4{display:inline;fill:#262B35;}
	.st5{display:inline;fill:none;stroke:#262B35;stroke-width:0.5;stroke-miterlimit:10;}
</style>
<rect class="st0" width="1000" height="1500"/>
<g>
	<g class="st1">
		<line class="st2" x1="312.7" y1="1056.7" x2="402.5" y2="433.2"/>
		<line class="st2" x1="821.5" y1="1160.6" x2="830.3" y2="512.1"/>
		<line class="st2" x1="830.3" y1="512.1" x2="559.3" y2="228"/>
		<line class="st2" x1="830.3" y1="512.1" x2="765.5" y2="929.2"/>
		<line class="st2" x1="765.5" y1="929.2" x2="639.3" y2="1272"/>
	</g>
	<g>
		<polygon class="st3" points="508.9,565.9 463.4,403.5 668.6,274.8 		"/>
		<polygon class="st3" points="508.9,565.9 666.3,414.3 668.6,274.8 		"/>
		<polygon class="st3" points="508.9,565.9 733.4,521.4 666.3,414.3 		"/>
		<polygon class="st3" points="733.4,521.4 668.6,274.8 666.3,414.3 		"/>
		<polygon class="st3" points="508.9,565.9 563.8,646.4 733.4,521.4 		"/>
		<polygon class="st3" points="563.8,646.4 410.8,925.3 733.4,521.4 		"/>
		<polygon class="st3" points="508.9,565.9 410.8,925.3 563.8,646.4 		"/>
		<polygon class="st3" points="338.4,719.7 508.9,565.9 458.4,751 		"/>
		<path class="st3" d="M463.4,403.5c0,0-128.9,319.7-125.1,316.3c3.8-3.4,170.5-153.9,170.5-153.9L463.4,403.5z"/>
		<polygon class="st3" points="410.8,925.3 456.7,1208.7 512.5,1107.1 		"/>
		<polygon class="st3" points="661.8,1061.2 456.7,1208.7 512.5,1107.1 		"/>
		<polygon class="st3" points="608.3,847.5 410.8,925.3 733.4,521.4 		"/>
		<polygon class="st3" points="661.8,1061.2 410.8,925.3 512.5,1107.1 		"/>
		<polygon class="st3" points="608.3,847.5 661.8,1061.2 410.8,925.3 		"/>
		<polygon class="st3" points="661.8,1061.2 608.3,847.5 733.4,521.4 		"/>
		<polygon class="st3" points="733.4,521.4 845.8,614 691.5,837.5 		"/>
		<polygon class="st3" points="661.8,1061.2 691.5,837.5 845.8,614 		"/>
	</g>
	<g class="st1">
		<polyline class="st2" points="312.7,1056.7 617.1,854.3 559.3,228 		"/>
		<line class="st2" x1="830.3" y1="512.1" x2="160.2" y2="683.5"/>
		<polyline class="st2" points="402.5,433.2 639.3,1272 821.5,1160.6 		"/>
	</g>
	<g class="st1">
		<circle class="st4" cx="160.2" cy="683.5" r="6.1"/>
		<circle class="st4" cx="402.5" cy="433.2" r="6.1"/>
		<circle class="st4" cx="559.3" cy="228" r="6.1"/>
		<circle class="st4" cx="830.3" cy="512.1" r="6.1"/>
		<circle class="st4" cx="821.5" cy="1160.6" r="6.1"/>
		<circle class="st4" cx="639.3" cy="1272" r="6.1"/>
		<circle class="st4" cx="765.5" cy="929.2" r="6.1"/>
		<circle class="st4" cx="617.1" cy="854.3" r="6.1"/>
		<circle class="st4" cx="312.7" cy="1056.7" r="6.1"/>
	</g>
</g>
<g class="st1">
	<line class="st5" x1="559.3" y1="228" x2="699.9" y2="156"/>
	<line class="st5" x1="559.3" y1="228" x2="217" y2="228"/>
	<line class="st5" x1="217" y1="228" x2="36" y2="43"/>
	<line class="st5" x1="402.5" y1="433.2" x2="318.8" y2="350"/>
	<line class="st5" x1="318.8" y1="350" x2="230" y2="391.6"/>
	<line class="st5" x1="318.8" y1="350" x2="312.7" y2="301"/>
	<line class="st5" x1="830.3" y1="512.1" x2="949" y2="565.9"/>
	<line class="st5" x1="639.3" y1="1272" x2="691.5" y2="1446"/>
	<line class="st5" x1="312.7" y1="1056.7" x2="144" y2="1278"/>
	<line class="st5" x1="144" y1="1278" x2="154.2" y2="1377"/>
	<line class="st5" x1="144" y1="1278" x2="17" y2="1377"/>
	<line class="st5" x1="160.2" y1="683.5" x2="98" y2="827"/>
</g>
</svg>
