<?xml version="1.0" encoding="utf-8"?>
<!-- Generator: Adobe Illustrator 19.1.0, SVG Export Plug-In . SVG Version: 6.00 Build 0)  -->
<svg version="1.1" id="Layer_2" xmlns="http://www.w3.org/2000/svg" xmlns:xlink="http://www.w3.org/1999/xlink" x="0px" y="0px"
	 viewBox="-249 0 900 1000" style="enable-background:new -249 0 900 1000;" xml:space="preserve">
<style type="text/css">
	.st0{fill:#1C1C21;}
	.st1{opacity:0.3;}
	.st2{fill:#0F0E15;}
	.st3{fill:none;}
	.st4{opacity:0.2;fill:#0F0E15;enable-background:new    ;}
	.st5{opacity:0.7;fill:#2C2C38;enable-background:new    ;}
	.st6{opacity:0.15;fill:#0F0E15;enable-background:new    ;}
	.st7{opacity:0.2;fill:#262B35;enable-background:new    ;}
	.st8{opacity:0.13;fill:#0F0E15;enable-background:new    ;}
	.st9{opacity:0.2;}
	.st10{opacity:0.6;fill:#0F0E15;enable-background:new    ;}
	.st11{opacity:0.5;fill:#0F0E15;enable-background:new    ;}
	.st12{opacity:0.5;fill:#2C2C38;enable-background:new    ;}
	.st13{opacity:0.4;}
	.st14{fill:none;stroke:#2C2C38;stroke-linecap:round;stroke-linejoin:round;stroke-miterlimit:10;}
</style>
<rect x="-249" class="st0" width="900" height="1000"/>
<g class="st1">
	<polygon class="st2" points="117.8,324.1 72.4,161.7 277.5,33 	"/>
	<polygon class="st3" points="117.8,324.1 342.3,279.6 275.3,172.5 	"/>
	<polygon class="st3" points="342.3,279.6 277.5,33 275.3,172.5 	"/>
	<polygon class="st4" points="117.8,324.1 172.7,404.6 342.3,279.6 	"/>
	<polygon class="st5" points="172.7,404.6 19.7,683.5 342.3,279.6 	"/>
	<path class="st3" d="M72.4,161.7c0,0-128.9,319.7-125.1,316.3s170.5-153.9,170.5-153.9L72.4,161.7z"/>
	<polygon class="st3" points="19.7,683.5 65.6,967 121.4,865.3 	"/>
	<polygon class="st6" points="-52.7,478 117.8,324.1 67.3,509.2 	"/>
	<polygon class="st2" points="270.8,819.4 65.6,967 121.4,865.3 	"/>
	<polygon class="st7" points="217.2,605.7 19.7,683.5 342.3,279.6 	"/>
	<polygon class="st8" points="270.8,819.4 19.7,683.5 121.4,865.3 	"/>
	<polygon class="st3" points="217.2,605.7 270.8,819.4 19.7,683.5 	"/>
	<g class="st9">
		<polygon class="st10" points="117.8,324.1 275.3,172.5 277.5,33 		"/>
		<polygon class="st11" points="117.8,324.1 19.7,683.5 172.7,404.6 		"/>
		<polygon class="st2" points="270.8,819.4 217.2,605.7 342.3,279.6 		"/>
	</g>
	<polygon class="st3" points="342.3,279.6 454.8,372.2 300.4,595.8 	"/>
	<polygon class="st12" points="270.8,819.4 300.4,595.8 454.8,372.2 	"/>
</g>
<g class="st13">
	<polygon class="st14" points="117.8,324.1 72.4,161.7 277.5,33 	"/>
	<polygon class="st14" points="117.8,324.1 342.3,279.6 275.3,172.5 	"/>
	<polygon class="st14" points="342.3,279.6 277.5,33 275.3,172.5 	"/>
	<polygon class="st14" points="117.8,324.1 172.7,404.6 342.3,279.6 	"/>
	<polygon class="st14" points="172.7,404.6 19.7,683.5 342.3,279.6 	"/>
	<path class="st14" d="M72.4,161.7c0,0-128.9,319.7-125.1,316.3s170.5-153.9,170.5-153.9L72.4,161.7z"/>
	<polygon class="st14" points="-52.7,478 117.8,324.1 67.3,509.2 	"/>
	<polygon class="st14" points="19.7,683.5 65.6,967 121.4,865.3 	"/>
	<polygon class="st14" points="270.8,819.4 65.6,967 121.4,865.3 	"/>
	<polygon class="st14" points="217.2,605.7 19.7,683.5 342.3,279.6 	"/>
	<polygon class="st14" points="270.8,819.4 19.7,683.5 121.4,865.3 	"/>
	<polygon class="st14" points="217.2,605.7 270.8,819.4 19.7,683.5 	"/>
	<polygon class="st14" points="117.8,324.1 275.3,172.5 277.5,33 	"/>
	<polygon class="st14" points="117.8,324.1 19.7,683.5 172.7,404.6 	"/>
	<polygon class="st14" points="270.8,819.4 217.2,605.7 342.3,279.6 	"/>
	<polygon class="st14" points="342.3,279.6 454.8,372.2 300.4,595.8 	"/>
	<polygon class="st14" points="270.8,819.4 300.4,595.8 454.8,372.2 	"/>
</g>
</svg>
