<?xml version="1.0" standalone="no"?>
<!DOCTYPE svg PUBLIC "-//W3C//DTD SVG 1.1//EN" "http://www.w3.org/Graphics/SVG/1.1/DTD/svg11.dtd" >
<svg xmlns="http://www.w3.org/2000/svg">
<metadata>
<json>
<![CDATA[
{
	"fontFamily": "icomoon",
	"majorVersion": 1,
	"minorVersion": 0,
	"version": "Version 1.0",
	"fontId": "icomoon",
	"psName": "icomoon",
	"subFamily": "Regular",
	"fullName": "icomoon",
	"description": "Font generated by IcoMoon."
}
]]>
</json>
</metadata>
<defs>
<font id="icomoon" horiz-adv-x="1024">
<font-face units-per-em="1024" ascent="798.72" descent="-225.28" />
<missing-glyph horiz-adv-x="1024" />
<glyph unicode="&#x20;" horiz-adv-x="512" d="" />
<glyph unicode="&#xe800;" glyph-name="logotype" data-tags="logotype" horiz-adv-x="5213" d="M5091.142 0c-1.862-11.171 3.724-13.964 8.378-13.964h26.996c9.309 0 12.102 9.309 12.102 13.964v0l73.542 418.909c-53.062 19.549-114.502 29.789-156.393 29.789-121.949 0-171.287-48.407-192.698-167.564l-34.444-194.56c-1.862-12.102-2.793-23.273-2.793-33.513 0-55.855 31.651-76.335 89.367-76.335 65.164 0 130.327 30.72 182.458 75.404l-6.516-52.131zM4920.785 23.273c-27.927 0-41.891 7.447-41.891 36.305 0 7.447 0.931 15.825 2.793 26.996l32.582 185.251c17.687 99.607 50.269 130.327 134.982 130.327 37.236 0 80.989-7.447 106.124-14.895l-48.407-274.618c-58.647-52.131-129.396-89.367-186.182-89.367zM4809.076 401.222v0l6.516 29.789c1.862 8.378-1.862 7.447-6.516 7.447h-127.535l17.687 104.262c1.862 11.171-5.585 13.033-11.171 12.102v0l-28.858-3.724c-8.378-0.931-12.102-8.378-12.102-12.102v0l-17.687-99.607h-79.127c-1.862 0-8.378-0.931-10.24-7.447l-4.655-28.858c0-2.793 0-8.378 7.447-8.378h77.265l-59.578-338.851c-0.931-6.516-1.862-12.102-1.862-17.687 0-40.96 28.858-60.509 74.473-60.509 35.375 0 99.607 10.24 131.258 26.065 9.309 5.585 8.378 12.102 6.516 16.756v0l-6.516 18.618c-1.862 3.724-6.516 3.724-10.24 2.793v0c-30.72-12.102-48.407-18.618-111.709-18.618-21.411 0-30.72 4.655-30.72 22.342 0 4.655 0.931 10.24 1.862 16.756l58.647 333.265h126.604c6.516-0.931 9.309 1.862 10.24 5.585zM4348.276 0c-1.862-11.171 3.724-13.964 8.378-13.964h26.996c9.309 0 12.102 9.309 12.102 13.964v0l73.542 418.909c-53.062 19.549-114.502 29.789-156.393 29.789-121.949 0-171.287-48.407-192.698-167.564l-34.444-194.56c-1.862-12.102-2.793-23.273-2.793-33.513 0-55.855 31.651-76.335 89.367-76.335 65.164 0 130.327 30.72 182.458 75.404l-6.516-52.131zM4178.851 23.273c-27.927 0-41.891 7.447-41.891 36.305 0 7.447 0.931 15.825 2.793 26.996l32.582 185.251c17.687 99.607 50.269 130.327 134.982 130.327 37.236 0 80.989-7.447 106.124-14.895l-48.407-274.618c-58.647-52.131-129.396-89.367-186.182-89.367zM3889.338 0c-1.862-11.171 3.724-13.964 8.378-13.964h26.996c9.309 0 12.102 9.309 12.102 13.964l108.916 617.193c1.862 11.171-5.585 13.033-11.171 12.102v0l-28.858-3.724c-8.378-0.931-12.102-8.378-12.102-12.102v0l-31.651-180.596c-27.927 8.378-80.058 14.895-109.847 14.895-115.433 0-171.287-44.684-192.698-167.564l-34.444-194.56c-1.862-12.102-2.793-23.273-2.793-33.513 0-55.855 31.651-76.335 89.367-76.335 65.164 0 133.12 30.72 185.251 75.404l-7.447-51.2zM3716.189 23.273c-27.927 0-41.891 7.447-41.891 36.305 0 7.447 0.931 15.825 2.793 26.996l32.582 185.251c17.687 100.538 52.131 130.327 134.982 130.327 36.305 0 72.611-5.585 108.916-14.895l-48.407-274.618c-58.647-52.131-131.258-89.367-188.975-89.367zM3587.724 438.458h-130.327c-5.585 0-13.033-4.655-14.895-8.378l-92.16-134.051-53.993 139.636c-2.793 7.447-10.24 10.24-15.825 9.309l-113.571-16.756 97.745-215.040-179.665-227.142h121.949c8.378 0 19.549 3.724 26.065 11.171l84.713 101.469 47.476-101.469c2.793-5.585 10.24-11.171 17.687-11.171h119.156l-95.884 210.385 181.527 242.036zM3028.247-5.585l77.265 443.113c1.862 9.309-5.585 9.309-11.171 8.378l-108.916-14.895c-12.102-1.862-14.895-10.24-15.825-14.895v0l-47.476-269.033c-33.513-16.756-93.091-42.822-117.295-42.822-13.033 0-17.687 4.655-17.687 13.964 0 3.724 0.931 9.309 1.862 13.964l53.062 305.338c1.862 9.309-5.585 9.309-10.24 8.378l-107.985-14.895c-12.102-1.862-14.895-10.24-15.825-14.895v0l-52.131-295.098c-2.793-18.618-4.655-33.513-4.655-52.131 0-56.785 23.273-92.16 82.851-92.16 52.131 0 107.985 17.687 178.735 51.2l0.931-33.513c0-2.793 0.931-8.378 5.585-8.378h100.538c5.585 0 8.378 4.655 8.378 8.378zM2548.829 6.516l109.847 625.571c1.862 9.309-3.724 9.309-8.378 8.378l-125.673-20.48c-56.785 15.825-121.018 22.342-158.255 22.342-116.364 0-155.462-40.029-174.080-144.291l-10.24-59.578h-50.269c-13.964 0-14.895-6.516-15.825-12.102v0l-14.895-87.505c-0.931-3.724 0.931-7.447 6.516-7.447h56.785l-61.44-345.367c-7.447-40.96-13.033-65.164-52.131-106.124v0c-7.447-7.447-5.585-10.24 0-14.895v0l68.887-64.233c7.447-6.516 10.24-4.655 17.687 2.793 63.302 64.233 83.782 107.055 94.022 167.564l63.302 360.262h100.538c5.585 0 7.447 0 9.309 7.447v0l24.204 91.229c1.862 6.516-4.655 8.378-9.309 8.378h-106.124l12.102 66.095c4.655 23.273 13.964 30.72 43.753 30.72 39.098 0 102.4-7.447 137.775-16.756l-89.367-512c-3.724-18.618-1.862-20.48 13.964-20.48h96.815c11.171 0 16.756 0 20.48 20.48zM1951.185 447.767c-52.131 0-107.985-17.687-178.735-51.2l0.931 40.029c0 10.24-7.447 8.378-13.033 7.447l-84.713-13.964c-13.964-2.793-18.618-11.171-19.549-15.825l-71.68-408.669c-3.724-18.618-1.862-20.48 13.964-20.48h96.815c11.171 0 16.756 0 20.48 20.48l47.476 271.825c35.375 18.618 93.091 42.822 117.295 42.822 13.033 0 17.687-3.724 17.687-13.033 0-3.724-0.931-8.378-1.862-13.964l-50.269-287.651c-3.724-18.618-1.862-20.48 13.964-20.48h96.815c11.171 0 16.756 0 20.48 20.48l52.131 297.891c3.724 23.273 4.655 36.305 4.655 52.131 0 57.716-22.342 92.16-82.851 92.16zM1586.269 639.535l-21.411-117.295c-2.793-14.895-5.585-14.895-15.825-16.756l-107.055-14.895c-12.102-1.862-13.033-1.862-11.171 12.102l19.549 113.571c0.931 3.724 3.724 12.102 15.825 13.964l108.916 14.895c10.24 1.862 12.102 0.931 11.171-5.585zM1538.793 445.905l-108.916-14.895c-12.102-1.862-14.895-10.24-15.825-14.895v0l-72.611-412.393c-2.793-15.825-0.931-17.687 13.964-17.687h96.815c11.171 0 16.756 0 20.48 20.48v0l76.335 431.011c2.793 9.309-4.655 8.378-10.24 8.378zM1006.313 149.876l-97.745 425.425c-5.585 23.273-26.996 46.545-49.338 53.062l-445.905 136.844c-5.585 1.862-12.102 2.793-18.618 2.793-19.549 0-39.098-7.447-52.131-18.618l-320.233-296.96c-16.756-15.825-26.996-46.545-21.411-68.887l104.262-455.215c5.585-23.273 26.996-46.545 49.338-53.062l417.047-128.465c5.585-1.862 12.102-2.793 18.618-2.793 19.549 0 39.098 7.447 52.131 18.618l342.575 317.44c17.687 16.756 26.996 46.545 21.411 69.818zM458.938 663.738l305.338-94.022c12.102-3.724 12.102-9.309 0-12.102l-161.047-37.236c-12.102-2.793-28.858 2.793-37.236 11.171l-112.64 121.018c-9.309 10.24-6.516 14.895 5.585 11.171zM649.775 114.502c2.793-12.102-4.655-19.549-16.756-15.825l-330.473 102.4c-12.102 3.724-13.964 13.964-4.655 22.342l253.207 234.589c9.309 8.378 18.618 5.585 21.411-6.516l77.265-336.989zM105.193 415.185l268.102 249.484c9.309 8.378 23.273 8.378 32.582-0.931l134.982-145.222c8.378-9.309 8.378-23.273-0.931-32.582l-269.033-249.484c-9.309-8.378-23.273-8.378-32.582 0.931l-134.051 145.222c-8.378 9.309-7.447 24.204 0.931 32.582zM170.356 18.618l-70.749 311.855c-2.793 12.102 1.862 14.895 10.24 5.585l112.64-121.018c8.378-9.309 12.102-26.065 8.378-38.167l-48.407-158.255c-3.724-12.102-9.309-12.102-12.102 0zM563.2-162.909l-350.022 107.985c-12.102 3.724-18.618 16.756-14.895 28.858l58.647 188.975c3.724 12.102 16.756 18.618 28.858 14.895l349.091-107.985c12.102-3.724 18.618-16.756 14.895-28.858l-58.647-188.975c-2.793-12.102-15.825-18.618-27.927-14.895zM874.124 91.229l-234.589-216.902c-9.309-8.378-13.964-5.585-10.24 6.516l48.407 158.255c3.724 12.102 16.756 24.204 28.858 26.996l161.047 37.236c13.033 1.862 15.825-2.793 6.516-12.102zM900.189 137.775l-192.698-43.753c-12.102-2.793-24.204 4.655-26.996 16.756l-81.92 356.538c-2.793 12.102 4.655 24.204 16.756 26.996l192.698 43.753c12.102 2.793 24.204-4.655 26.996-16.756l81.92-356.538c2.793-12.102-4.655-24.204-16.756-26.996z" />
<glyph unicode="&#xe801;" glyph-name="logo" data-tags="logo" horiz-adv-x="1015" d="M1012.829 149.876l-97.745 425.425c-5.585 23.273-26.996 46.545-49.338 53.062l-449.629 136.844c-5.585 1.862-12.102 2.793-18.618 2.793-19.549 0-39.098-7.447-52.131-18.618l-322.095-296.96c-16.756-15.825-26.996-46.545-21.411-68.887l105.193-455.215c5.585-23.273 26.996-46.545 49.338-53.062l419.84-128.465c5.585-1.862 12.102-2.793 18.618-2.793 19.549 0 39.098 7.447 52.131 18.618l344.436 317.44c17.687 16.756 26.996 46.545 21.411 69.818zM462.662 663.738l307.2-94.022c12.102-3.724 12.102-9.309 0-12.102l-161.978-37.236c-12.102-2.793-28.858 2.793-37.236 11.171l-113.571 121.018c-9.309 10.24-6.516 14.895 5.585 11.171zM654.429 114.502c2.793-12.102-4.655-19.549-16.756-15.825l-332.335 102.4c-12.102 3.724-13.964 13.964-4.655 22.342l255.069 234.589c9.309 8.378 18.618 5.585 21.411-6.516l77.265-336.989zM106.124 415.185l269.964 249.484c9.309 8.378 23.273 8.378 32.582-0.931l135.913-145.222c8.378-9.309 8.378-23.273-0.931-32.582l-270.895-249.484c-9.309-8.378-23.273-8.378-32.582 0.931l-134.982 145.222c-8.378 9.309-7.447 24.204 0.931 32.582zM172.218 18.618l-71.68 311.855c-2.793 12.102 1.862 14.895 10.24 5.585l113.571-121.018c8.378-9.309 12.102-26.065 8.378-38.167l-48.407-158.255c-3.724-12.102-9.309-12.102-12.102 0zM566.924-162.909l-351.884 107.985c-12.102 3.724-18.618 16.756-14.895 28.858l58.647 188.975c3.724 12.102 16.756 18.618 28.858 14.895l351.884-107.985c12.102-3.724 18.618-16.756 14.895-28.858l-58.647-188.975c-2.793-12.102-16.756-18.618-28.858-14.895zM879.709 91.229l-235.52-216.902c-9.309-8.378-13.964-5.585-10.24 6.516l48.407 158.255c3.724 12.102 16.756 24.204 28.858 26.996l161.978 37.236c13.033 1.862 15.825-2.793 6.516-12.102zM906.705 137.775l-193.629-43.753c-12.102-2.793-24.204 4.655-26.996 16.756l-82.851 356.538c-2.793 12.102 4.655 24.204 16.756 26.996l193.629 43.753c12.102 2.793 24.204-4.655 26.996-16.756l82.851-356.538c2.793-12.102-4.655-24.204-16.756-26.996z" />
<glyph unicode="&#xe802;" glyph-name="arrow-down" data-tags="arrow-down" horiz-adv-x="1650" d="M1627.022 631.467l-119.467 119.467c-28.444 28.444-73.956 28.444-102.4 0l-546.133-551.822c-17.067-17.067-51.2-17.067-68.267 0l-551.822 546.133c-28.444 28.444-73.956 28.444-102.4 0l-113.778-113.778c-28.444-28.444-28.444-73.956 0-102.4l768-768c17.067-17.067 51.2-17.067 68.267 0l768 768c28.444 28.444 28.444 73.956 0 102.4z" />
<glyph unicode="&#xe803;" glyph-name="arrow-up" data-tags="arrow-up" horiz-adv-x="1650" d="M22.756-119.467l119.467-119.467c28.444-28.444 73.956-28.444 102.4 0l546.133 551.822c17.067 17.067 51.2 17.067 68.267 0l551.822-551.822c28.444-28.444 73.956-28.444 102.4 0l119.467 119.467c28.444 28.444 28.444 73.956 0 102.4l-773.689 773.689c-17.067 17.067-51.2 17.067-68.267 0l-768-773.689c-28.444-28.444-28.444-73.956 0-102.4z" />
<glyph unicode="&#xe804;" glyph-name="arrow-left" data-tags="arrow-left" horiz-adv-x="636" d="M550.841-241.876l74.152 74.152c17.655 17.655 17.655 45.903 0 63.559l-342.51 338.979c-10.593 10.593-10.593 31.779 0 42.372l342.51 342.51c17.655 17.655 17.655 45.903 0 63.559l-74.152 74.152c-17.655 17.655-45.903 17.655-63.559 0l-480.221-480.221c-10.593-10.593-10.593-31.779 0-42.372l476.69-476.69c21.186-17.655 49.434-17.655 67.090 0z" />
<glyph unicode="&#xe805;" glyph-name="arrow-right" data-tags="arrow-right" horiz-adv-x="636" d="M84.745-241.876l-74.152 74.152c-17.655 17.655-17.655 45.903 0 63.559l342.51 342.51c10.593 10.593 10.593 31.779 0 42.372l-338.979 338.979c-17.655 17.655-17.655 45.903 0 63.559l74.152 74.152c17.655 17.655 45.903 17.655 63.559 0l476.69-476.69c10.593-10.593 10.593-31.779 0-42.372l-480.221-480.221c-17.655-17.655-45.903-17.655-63.559 0z" />
<glyph unicode="&#xe806;" glyph-name="health" data-tags="health" horiz-adv-x="1152" d="M576-256l-478.72 471.040c-130.56 128-130.56 332.8 0 458.24 130.56 128 340.48 128 465.92 0l12.8-12.8 12.8 10.24c130.56 128 340.48 128 465.92 0 130.56-128 130.56-332.8 0-458.24l-478.72-468.48z" />
<glyph unicode="&#xe807;" glyph-name="lightning" data-tags="lightning" horiz-adv-x="757" d="M730.157 768h-527.583c-11.13 0-20.035-6.678-24.487-17.809l-178.087-469.704c-4.452-11.13 4.452-24.487 15.583-24.487h115.757c8.904 0 17.809-8.904 13.357-20.035l-133.565-491.965 621.078 598.817c11.13 11.13 4.452 31.165-11.13 31.165h-86.817c-11.13 0-20.035 13.357-11.13 24.487l229.287 325.009c11.13 17.809 0 44.522-22.261 44.522z" />
<glyph unicode="&#xe808;" glyph-name="matrix" data-tags="matrix" d="M1015.808 276.48l-483.328 483.328c-10.24 10.24-28.672 10.24-40.96 0l-483.328-483.328c-6.144-6.144-8.192-12.288-8.192-20.48s2.048-14.336 8.192-20.48l483.328-483.328c6.144-6.144 12.288-8.192 20.48-8.192s14.336 2.048 20.48 8.192l483.328 483.328c6.144 6.144 8.192 12.288 8.192 20.48s-2.048 14.336-8.192 20.48zM632.832 256l-120.832-120.832-120.832 120.832 120.832 120.832 120.832-120.832zM673.792 296.96l-120.832 120.832 120.832 120.832 120.832-120.832-120.832-120.832zM512 700.416l120.832-120.832-120.832-120.832-120.832 120.832 120.832 120.832zM350.208 538.624l120.832-120.832-120.832-120.832-120.832 120.832 120.832 120.832zM190.464 376.832l120.832-120.832-120.832-120.832-120.832 120.832 120.832 120.832zM350.208 215.040l120.832-120.832-120.832-120.832-120.832 120.832 120.832 120.832zM512-186.368l-120.832 120.832 120.832 120.832 120.832-120.832-120.832-120.832zM673.792-26.624l-120.832 120.832 120.832 120.832 120.832-120.832-120.832-120.832zM833.536 135.168l-120.832 120.832 120.832 120.832 120.832-120.832-120.832-120.832z" />
<glyph unicode="&#xe809;" glyph-name="cluster" data-tags="cluster" d="M638.494-256c-2.008 0-2.008 0-4.016 0h-2.008c0 0 0 0-2.008 0h-2.008c0 0 0 0-2.008 0v0c-2.008 0-2.008 0-2.008 0h-4.016l-88.345 42.165c-2.008 0-4.016 2.008-6.024 2.008l-92.361 66.259-2.008 2.008c0 0-2.008 0-2.008 2.008l-2.008 2.008c0 0 0 2.008-2.008 2.008 0 0 0 2.008-2.008 2.008v16.063l30.118 156.612v6.024c0 0 0 2.008 2.008 2.008 0 0 0 2.008 2.008 2.008 0 0 0 2.008 2.008 2.008l4.016 4.016c0 0 2.008 0 2.008 2.008 0 0 2.008 0 2.008 2.008h6.024l162.635 40.157h2.008c0 0 0 0 2.008 0h6.024c2.008 0 2.008 0 2.008 0h2.008c2.008 0 2.008 0 2.008-2.008 0 0 0 0 2.008 0s2.008-2.008 2.008-2.008 0 0 2.008-2.008l2.008-2.008 104.408-126.494c0 0 0-2.008 2.008-2.008v-10.039c0-2.008 0-2.008 0-2.008v-12.047l-48.188-100.392c0-2.008-2.008-4.016-4.016-4.016l-60.235-76.298v-4.016c0 0 0 0-2.008-2.008v0 0c0 0-2.008 0-2.008-2.008 0 0 0 0-2.008 0v0c-6.024-2.008-8.031-2.008-10.039-4.016zM819.2-11.043h-4.016c-2.008 0-2.008 0-2.008 0h-8.031c0 0-2.008 0-2.008 2.008 0 0-2.008 0-2.008 2.008 0 0 0 0-2.008 0 0 0 0 0-2.008 2.008l-122.478 104.408-2.008 2.008c0 0 0 0-2.008 2.008 0 0 0 2.008-2.008 2.008v18.071l46.18 160.627v2.008c0 0 0 0 0 2.008v2.008c0 0 0 2.008 2.008 2.008 0 0 0 2.008 2.008 2.008l2.008 2.008c0 0 0 0 2.008 2.008 2.008 0 2.008 2.008 2.008 2.008s0 0 2.008 0 2.008 2.008 2.008 2.008h10.039l160.627 24.094h4.016c2.008 0 2.008 0 2.008 0h2.008c2.008 0 2.008 0 2.008 0h2.008c0 0 2.008 0 2.008-2.008 0 0 0 0 2.008-2.008 0 0 2.008 0 2.008-2.008 0 0 2.008 0 2.008-2.008l2.008-2.008c0 0 0 0 2.008-2.008 0 0 0 0 0-2.008l62.243-92.361c2.008-2.008 2.008-4.016 2.008-6.024l36.141-90.353v-6.024c0 0 0 0 0-2.008 0 0 0 0 0-2.008v-4.016c0-2.008 0-4.016 0-4.016 0-2.008 0-2.008-2.008-4.016v0-2.008c0 0 0-2.008-2.008-2.008v-2.008l-4.016-4.016h-2.008l-78.306-58.227c-2.008-2.008-4.016-2.008-6.024-2.008l-104.408-44.173h-2.008c-2.008 2.008-2.008 2.008-4.016 2.008v0zM728.847 320.251h-18.071c0 0-2.008 0-2.008 2.008 0 0 0 0-2.008 2.008 0 0-2.008 0-2.008 2.008 0 0 0 0-2.008 2.008l-118.463 120.471c0 0 0 0 0 2.008 0 0 0 2.008-2.008 2.008 0 0 0 2.008-2.008 2.008v2.008c0 2.008 0 2.008 0 2.008s0 0 0 2.008 0 2.008 0 2.008v8.031l58.227 150.588v2.008c0 0 0 2.008 2.008 2.008l2.008 2.008c0 0 0 2.008 2.008 2.008l2.008 2.008c0 0 2.008 0 2.008 2.008l4.016 2.008c0 0 2.008 0 2.008 2.008h4.016c0 0 0 0 2.008 0 0 0 0 0 2.008 0h2.008l112.439 8.031c2.008 0 4.016 0 6.024 0l96.376-14.055h8.031c0 0 2.008 0 2.008-2.008 0 0 0 0 2.008 0v0c2.008 0 2.008-2.008 4.016-2.008 2.008-2.008 2.008-2.008 2.008-4.016v0c0 0 0 0 0-2.008 0 0 0-2.008 2.008-2.008v-2.008c0-2.008 0-2.008 0-2.008v-4.016l10.039-96.376c0-2.008 0-4.016 0-6.024l-12.047-112.439v-6.024c0 0 0-2.008-2.008-2.008 0 0 0-2.008-2.008-2.008 0 0 0-2.008-2.008-2.008 0 0 0 0-2.008-2.008 0 0 0 0-2.008-2.008l-2.008-2.008c0 0-2.008 0-2.008-2.008h-6.024l-152.596-52.204 4.016-4.016c2.008 0 0 0 0 0zM383.498 416.627v0c-2.008 0-2.008 0-2.008 0h-6.024c-2.008 0-2.008 0-2.008 0h-2.008c-2.008 0-2.008 0-2.008 2.008 0 0 0 0-2.008 0s-2.008 2.008-2.008 2.008 0 0-2.008 2.008l-2.008 2.008-104.408 126.494c0 0 0 2.008-2.008 2.008 0 0 0 2.008-2.008 2.008v18.071c0 0 0 0 0 2.008v2.008l48.188 100.392c0 2.008 2.008 4.016 4.016 4.016l60.235 76.298v2.008l2.008 2.008c0 0 0 2.008 2.008 2.008v0c0 0 0 0 2.008 0 0 0 2.008 0 2.008 2.008 0 0 0 0 2.008 0v0c2.008 0 2.008 2.008 4.016 2.008s2.008 0 4.016 0v0h4.016c0 0 0 0 2.008 0h2.008c2.008 0 2.008 0 2.008 0h4.016l90.353-38.149c2.008 0 4.016-2.008 6.024-2.008l90.353-66.259 2.008-2.008 6.024-2.008 2.008-2.008c0 0 0-2.008 2.008-2.008 0 0 0-2.008 2.008-2.008v-16.063l-30.118-156.612v-8.031c0 0 0-2.008-2.008-2.008 0 0 0-2.008-2.008-2.008 0 0 0-2.008-2.008-2.008l-4.016-4.016c0 0-2.008 0-2.008-2.008 0 0-2.008 0-2.008-2.008h-6.024l-164.643-40.157zM128.502 183.718h-4.016c-2.008 0-2.008 0-2.008 0h-6.024c0 0-2.008 0-2.008 2.008 0 0 0 0-2.008 2.008 0 0-2.008 0-2.008 2.008 0 0-2.008 0-2.008 2.008l-2.008 2.008c0 0 0 0-2.008 2.008 0 0 0 0-2.008 2.008l-62.243 92.361c-2.008 2.008-2.008 4.016-2.008 6.024l-36.141 90.353v8.031c0 0 0 0 0 2.008 0 0 0 0 0 2.008v4.016c0 2.008 0 2.008 0 4.016s0 2.008 2.008 4.016v0c0 0 0 0 0 2.008 0 0 0 2.008 2.008 2.008v2.008l4.016 4.016h2.008l78.306 58.227c2.008 2.008 4.016 2.008 6.024 2.008l104.408 44.173h2.008c0 0 0 0 2.008 0v0c2.008 0 2.008 0 2.008 0h2.008c2.008 0 2.008 0 2.008 0h8.031c0 0 2.008 0 2.008-2.008 0 0 2.008 0 2.008-2.008 0 0 0 0 2.008 0 0 0 0 0 2.008-2.008l122.478-104.408 2.008-2.008c0 0 0 0 2.008-2.008 0 0 0-2.008 2.008-2.008v0c0 0 0 0 0-2.008v-16.063l-46.18-160.627v-2.008c0 0 0 0 0-2.008v-2.008c0 0 0-2.008-2.008-2.008 0 0 0 0-2.008-2.008 0-2.008-2.008-2.008-2.008-2.008s0 0-2.008-2.008c-2.008 0-2.008-2.008-2.008-2.008s0 0-2.008 0v0c0 0-2.008 0-2.008-2.008h-8.031l-158.62-28.11zM363.42-123.482v0c-2.008 0-2.008 0-4.016 0l-112.439-8.031c-2.008 0-4.016 0-6.024 0l-96.376 14.055h-6.024c0 0 0 0-2.008 0 0 0 0 0-2.008 0 0 0-2.008 0-2.008 2.008 0 0 0 0-2.008 0v0c-2.008 0-2.008 2.008-4.016 4.016s-2.008 2.008-2.008 4.016v0c0 0 0 0 0 2.008 0 0 0 2.008-2.008 2.008 0 0 0 0 0 2.008v0c0 2.008 0 2.008 0 2.008v0 4.016l-10.039 96.376c0 2.008 0 4.016 0 6.024l12.047 112.439v4.016c0 2.008 0 2.008 0 2.008v2.008c0 0 0 2.008 2.008 2.008 0 0 0 2.008 2.008 2.008 0 0 0 2.008 2.008 2.008 0 0 0 2.008 2.008 2.008l2.008 2.008c0 0 2.008 0 2.008 2.008 0 0 2.008 0 2.008 2.008 0 0 0 0 2.008 0h2.008l152.596 52.204h20.078c0 0 2.008 0 2.008-2.008 0 0 0 0 2.008-2.008 0 0 2.008 0 2.008-2.008 0 0 0 0 2.008-2.008l118.463-120.471c0 0 0 0 0-2.008 0 0 0-2.008 2.008-2.008 0 0 0-2.008 2.008-2.008v-2.008c0-2.008 0-2.008 0-2.008v-2.008c0-2.008 0-2.008 0-2.008v-2.008c0-2.008 0-2.008 0-2.008v-4.016l-58.227-150.588v-2.008c0 0 0-2.008-2.008-2.008l-2.008-2.008c0 0 0-2.008-2.008-2.008l-2.008-2.008c0 0 0 0-2.008-2.008l-2.008-2.008c0 0 0 0-2.008-2.008h-10.039zM473.851 101.396v0c-8.031 0-20.078 4.016-26.102 10.039l-86.337 90.353c-8.031 8.031-10.039 22.086-8.031 32.125l38.149 126.494c4.016 10.039 12.047 20.078 24.094 24.094l120.471 28.11c2.008 0 4.016 0 8.031 0 8.031 0 20.078-4.016 26.102-10.039l92.361-94.369c8.031-8.031 10.039-22.086 8.031-32.125l-34.133-118.463c-4.016-10.039-12.047-20.078-24.094-24.094l-130.51-32.125c-4.016 0-6.024 0-8.031 0z" />
<glyph unicode="&#xe80a;" glyph-name="data" data-tags="data" horiz-adv-x="683" d="M682.667 472.747v187.733c0 73.387-177.493 107.52-341.333 107.52s-341.333-34.133-341.333-107.52v-187.733c0-27.307 23.893-47.787 61.44-64.853-30.72-13.653-51.2-29.013-58.027-49.493-1.707-1.707-3.413-5.12-3.413-8.533v-187.733c0-27.307 23.893-47.787 61.44-64.853-30.72-13.653-51.2-29.013-58.027-49.493-1.707-3.413-3.413-5.12-3.413-10.24v-187.733c0-71.68 177.493-105.813 341.333-105.813s341.333 34.133 341.333 107.52v187.733c0 3.413-1.707 6.827-3.413 10.24-6.827 20.48-29.013 35.84-58.027 49.493 37.547 17.067 61.44 37.547 61.44 64.853v187.733c0 3.413-1.707 6.827-3.413 8.533-6.827 20.48-29.013 35.84-58.027 49.493 37.547 15.36 61.44 37.547 61.44 63.147zM645.12 32.427c0-23.893-107.52-69.973-303.787-69.973s-303.787 46.080-303.787 69.973c0 11.947 29.013 30.72 85.333 46.080 63.147-15.36 141.653-22.187 218.453-22.187s157.013 6.827 218.453 22.187c56.32-15.36 85.333-34.133 85.333-46.080zM645.12 344.747c0-23.893-107.52-69.973-303.787-69.973s-303.787 46.080-303.787 69.973c0 11.947 29.013 30.72 85.333 46.080 63.147-15.36 141.653-22.187 218.453-22.187s157.013 6.827 218.453 22.187c56.32-15.36 85.333-34.133 85.333-46.080zM341.333 592.213c-196.267 0-303.787 46.080-303.787 69.973s107.52 69.973 303.787 69.973 303.787-46.080 303.787-69.973-107.52-69.973-303.787-69.973z" />
<glyph unicode="&#xe80b;" glyph-name="cross" data-tags="cross, cancel, close, quit, remove" d="M1014.662-54.66c-0.004 0.004-0.008 0.008-0.012 0.010l-310.644 310.65 310.644 310.65c0.004 0.004 0.008 0.006 0.012 0.010 3.344 3.346 5.762 7.254 7.312 11.416 4.246 11.376 1.824 24.682-7.324 33.83l-146.746 146.746c-9.148 9.146-22.45 11.566-33.828 7.32-4.16-1.55-8.070-3.968-11.418-7.31 0-0.004-0.004-0.006-0.008-0.010l-310.648-310.652-310.648 310.65c-0.004 0.004-0.006 0.006-0.010 0.010-3.346 3.342-7.254 5.76-11.414 7.31-11.38 4.248-24.682 1.826-33.83-7.32l-146.748-146.748c-9.148-9.148-11.568-22.452-7.322-33.828 1.552-4.16 3.97-8.072 7.312-11.416 0.004-0.002 0.006-0.006 0.010-0.010l310.65-310.648-310.65-310.652c-0.002-0.004-0.006-0.006-0.008-0.010-3.342-3.346-5.76-7.254-7.314-11.414-4.248-11.376-1.826-24.682 7.322-33.83l146.748-146.746c9.15-9.148 22.452-11.568 33.83-7.322 4.16 1.552 8.070 3.97 11.416 7.312 0.002 0.004 0.006 0.006 0.010 0.010l310.648 310.65 310.648-310.65c0.004-0.002 0.008-0.006 0.012-0.008 3.348-3.344 7.254-5.762 11.414-7.314 11.378-4.246 24.684-1.826 33.828 7.322l146.746 146.748c9.148 9.148 11.57 22.454 7.324 33.83-1.552 4.16-3.97 8.068-7.314 11.414z" />
<glyph unicode="&#xe80c;" glyph-name="checkmark" data-tags="checkmark, tick, correct, accept, ok" d="M864 640l-480-480-224 224-160-160 384-384 640 640z" />
<glyph unicode="&#xe80d;" glyph-name="facebook" data-tags="facebook, brand, social" d="M672 576c-88.366 0-160-71.634-160-160v-96h-128v-128h128v-448h128v448h144l32 128h-176v96c0 17.672 14.326 32 32 32h160v128h-160z" />
<glyph unicode="&#xe80e;" glyph-name="facebook2" data-tags="facebook, brand, social" d="M853.35 768h-682.702c-94.25 0-170.648-76.42-170.648-170.686v-682.63c0-94.266 76.398-170.684 170.648-170.684h341.352v448h-128v128h128v96c0 88.366 71.634 160 160 160h160v-128h-160c-17.674 0-32-14.328-32-32v-96h176l-32-128h-144v-448h213.35c94.25 0 170.65 76.418 170.65 170.684v682.63c0 94.266-76.4 170.686-170.65 170.686z" />
<glyph unicode="&#xe80f;" glyph-name="facebook3" data-tags="facebook, brand, social" d="M512 768c-282.77 0-512-229.23-512-512s229.23-512 512-512v384h-128v128h128v96c0 88.366 71.632 160 160 160h160v-128h-160c-17.674 0-32-14.328-32-32v-96h176l-32-128h-144v-367.87c220.828 56.838 384 257.3 384 495.87 0 282.77-229.23 512-512 512z" />
<glyph unicode="&#xe810;" glyph-name="twitter" data-tags="twitter, brand, tweet, social" d="M1024 573.582c-37.676-16.708-78.164-28.002-120.66-33.080 43.372 26 76.686 67.17 92.372 116.23-40.596-24.078-85.556-41.56-133.41-50.98-38.32 40.83-92.922 66.34-153.346 66.34-116.022 0-210.088-94.058-210.088-210.078 0-16.466 1.858-32.5 5.44-47.878-174.6 8.764-329.402 92.4-433.018 219.506-18.084-31.028-28.446-67.116-28.446-105.618 0-72.888 37.088-137.192 93.46-174.866-34.438 1.092-66.832 10.542-95.154 26.278-0.020-0.876-0.020-1.756-0.020-2.642 0-101.788 72.418-186.696 168.522-206-17.626-4.8-36.188-7.372-55.348-7.372-13.538 0-26.698 1.32-39.528 3.772 26.736-83.46 104.32-144.206 196.252-145.896-71.9-56.35-162.486-89.934-260.916-89.934-16.958 0-33.68 0.994-50.116 2.94 92.972-59.61 203.402-94.394 322.042-94.394 386.422 0 597.736 320.124 597.736 597.744 0 9.108-0.206 18.168-0.61 27.18 41.056 29.62 76.672 66.62 104.836 108.748z" />
<glyph unicode="&#xe811;" glyph-name="twitter2" data-tags="twitter, brand, tweet, social" d="M853.342 768h-682.656c-93.874 0-170.686-76.81-170.686-170.69v-682.624c0-93.936 76.812-170.686 170.686-170.686h682.656c93.876 0 170.658 76.75 170.658 170.69v682.62c0 93.88-76.782 170.69-170.658 170.69zM766.478 386.52c0.252-5.632 0.38-11.296 0.38-16.988 0-173.51-132.070-373.588-373.584-373.588-74.15 0-143.168 21.738-201.276 58.996 10.272-1.218 20.724-1.84 31.322-1.84 61.518 0 118.134 20.992 163.072 56.21-57.458 1.054-105.948 39.020-122.658 91.184 8.018-1.532 16.244-2.36 24.704-2.36 11.976 0 23.578 1.61 34.592 4.61-60.064 12.066-105.326 65.132-105.326 128.75 0 0.554 0 1.104 0.012 1.652 17.7-9.834 37.948-15.742 59.47-16.424-35.232 23.546-58.414 63.736-58.414 109.292 0 24.064 6.476 46.62 17.78 66.010 64.76-79.44 161.51-131.712 270.634-137.19-2.238 9.612-3.4 19.632-3.4 29.924 0 72.512 58.792 131.298 131.304 131.298 37.766 0 71.892-15.944 95.842-41.462 29.908 5.886 58.008 16.814 83.38 31.862-9.804-30.662-30.624-56.394-57.732-72.644 26.56 3.174 51.866 10.232 75.412 20.674-17.594-26.328-39.854-49.454-65.514-67.966z" />
<glyph unicode="&#xe812;" glyph-name="twitter3" data-tags="twitter, brand, social" d="M512 768c-282.77 0-512-229.23-512-512s229.23-512 512-512 512 229.23 512 512-229.23 512-512 512zM766.478 386.52c0.252-5.632 0.38-11.296 0.38-16.988 0-173.51-132.070-373.588-373.584-373.588-74.15 0-143.168 21.738-201.276 58.996 10.272-1.218 20.724-1.84 31.322-1.84 61.518 0 118.134 20.992 163.072 56.21-57.458 1.054-105.948 39.020-122.658 91.184 8.018-1.532 16.244-2.36 24.704-2.36 11.976 0 23.578 1.61 34.592 4.61-60.064 12.066-105.326 65.132-105.326 128.75 0 0.554 0 1.104 0.012 1.652 17.7-9.834 37.948-15.742 59.47-16.424-35.232 23.546-58.414 63.736-58.414 109.292 0 24.064 6.476 46.62 17.78 66.010 64.76-79.44 161.51-131.712 270.634-137.19-2.238 9.612-3.4 19.632-3.4 29.924 0 72.512 58.792 131.298 131.304 131.298 37.766 0 71.892-15.944 95.842-41.462 29.908 5.886 58.008 16.814 83.38 31.862-9.804-30.662-30.624-56.394-57.732-72.644 26.56 3.174 51.866 10.232 75.412 20.674-17.594-26.328-39.854-49.454-65.514-67.966z" />
<glyph unicode="&#xe813;" glyph-name="github" data-tags="github, brand, octacat, social" d="M512.008 755.358c-282.738 0-512.008-229.218-512.008-511.998 0-226.214 146.704-418.132 350.136-485.836 25.586-4.738 34.992 11.11 34.992 24.632 0 12.204-0.48 52.542-0.696 95.324-142.448-30.976-172.504 60.41-172.504 60.41-23.282 59.176-56.848 74.916-56.848 74.916-46.452 31.778 3.51 31.124 3.51 31.124 51.4-3.61 78.476-52.766 78.476-52.766 45.672-78.27 119.776-55.64 149.004-42.558 4.588 33.086 17.852 55.68 32.506 68.464-113.73 12.942-233.276 56.85-233.276 253.032 0 55.898 20.004 101.574 52.76 137.428-5.316 12.9-22.854 64.972 4.952 135.5 0 0 43.006 13.752 140.84-52.49 40.836 11.348 84.636 17.036 128.154 17.234 43.502-0.198 87.336-5.886 128.256-17.234 97.734 66.244 140.656 52.49 140.656 52.49 27.872-70.528 10.35-122.6 5.036-135.5 32.82-35.856 52.694-81.532 52.694-137.428 0-196.654-119.778-239.95-233.79-252.624 18.364-15.89 34.724-47.046 34.724-94.812 0-68.508-0.596-123.644-0.596-140.508 0-13.628 9.222-29.594 35.172-24.566 203.322 67.776 349.842 259.626 349.842 485.768 0 282.78-229.234 511.998-511.992 511.998z" />
<glyph unicode="&#xe814;" glyph-name="github2" data-tags="github, brand, octacat, social" d="M0 211.59c0-46.398 4.34-88.38 13.022-125.934 8.678-37.554 20.696-70.184 36.052-97.892s34.884-52.078 58.586-73.108c23.7-21.032 49.406-38.224 77.112-51.576 27.706-13.35 59.336-24.198 94.888-32.546 35.552-8.346 71.856-14.188 108.91-17.528 37.054-3.338 77.78-5.006 122.178-5.006 44.732 0 85.628 1.668 122.68 5.006 37.054 3.34 73.442 9.184 109.16 17.528s67.512 19.192 95.388 32.546c27.876 13.354 53.746 30.544 77.616 51.576 23.87 21.030 43.566 45.404 59.086 73.108s27.622 60.336 36.302 97.892c8.68 37.556 13.020 79.536 13.020 125.934 0 82.788-27.708 154.394-83.118 214.816 3.004 8.012 5.758 17.108 8.262 27.29s4.84 24.702 7.010 43.564c2.17 18.862 1.336 40.642-2.504 65.346-3.838 24.704-10.932 49.906-21.284 75.612l-7.51 1.502c-5.342 1-14.106 0.75-26.29-0.752s-26.372-4.506-42.562-9.014c-16.19-4.506-37.054-13.186-62.592-26.038s-52.494-28.958-80.87-48.32c-48.736 13.352-115.668 20.030-200.792 20.030-84.792 0-151.556-6.678-200.294-20.030-28.376 19.362-55.5 35.468-81.37 48.32s-46.484 21.532-61.84 26.038c-15.354 4.508-29.71 7.428-43.062 8.764-13.354 1.336-21.784 1.752-25.288 1.252s-6.26-1.086-8.262-1.752c-10.348-25.706-17.442-50.906-21.28-75.612-3.838-24.704-4.674-46.486-2.504-65.346s4.508-33.382 7.010-43.564c2.504-10.182 5.258-19.278 8.262-27.29-55.414-60.422-83.122-132.026-83.122-214.816zM125.684 85.906c0 48.070 21.866 92.136 65.596 132.194 13.018 12.020 28.208 21.114 45.566 27.292 17.358 6.176 36.97 9.68 58.836 10.516 21.866 0.834 42.812 0.668 62.842-0.502 20.028-1.168 44.732-2.754 74.108-4.756 29.376-2.004 54.748-3.004 76.112-3.004 21.366 0 46.736 1 76.112 3.004 29.378 2.002 54.078 3.588 74.11 4.756 20.030 1.17 40.974 1.336 62.842 0.502 21.866-0.836 41.476-4.34 58.838-10.516 17.356-6.176 32.544-15.27 45.564-27.292 43.73-39.394 65.598-83.456 65.598-132.194 0-28.712-3.59-54.162-10.768-76.364-7.178-22.2-16.358-40.81-27.542-55.83s-26.704-27.79-46.568-38.306c-19.862-10.516-39.222-18.61-58.084-24.288-18.862-5.674-43.066-10.098-72.608-13.27-29.546-3.172-55.916-5.092-79.118-5.758-23.2-0.668-52.66-1.002-88.378-1.002s-65.178 0.334-88.378 1.002c-23.2 0.666-49.574 2.586-79.116 5.758s-53.744 7.596-72.606 13.27c-18.86 5.678-38.222 13.774-58.084 24.288s-35.386 23.282-46.568 38.306c-11.182 15.022-20.364 33.63-27.54 55.83-7.178 22.202-10.766 47.656-10.766 76.364zM640 96c0 53.019 28.654 96 64 96s64-42.981 64-96c0-53.019-28.654-96-64-96s-64 42.981-64 96zM256 96c0 53.019 28.654 96 64 96s64-42.981 64-96c0-53.019-28.654-96-64-96s-64 42.981-64 96z" />
<glyph unicode="&#xe815;" glyph-name="github3" data-tags="github, brand, octacat, social" d="M512-63.892c-19.154 0-38.308 9.916-58.142 29.75-7.81 7.81-7.81 20.474 0 28.286 7.81 7.808 20.474 7.808 28.286 0 12.206-12.21 21.972-18.144 29.856-18.144 7.882 0 17.65 5.934 29.858 18.142 7.812 7.808 20.472 7.808 28.286 0 7.81-7.81 7.81-20.474 0-28.286-19.836-19.832-38.99-29.748-58.144-29.748zM0 242.508c0-49.892 4.266-95.122 12.8-135.682s20.534-75.74 36-105.532c15.466-29.792 35.022-55.904 58.666-78.34s49.332-40.92 77.066-55.458c27.734-14.536 59.466-26.296 95.2-35.266 35.732-8.974 72.088-15.256 109.066-18.846s77.69-5.384 122.134-5.384c44.444 0 85.242 1.79 122.398 5.38s73.602 9.872 109.332 18.846c35.734 8.974 67.558 20.73 95.468 35.266 27.91 14.538 53.778 33.026 77.598 55.458 23.824 22.436 43.47 48.548 58.934 78.34 15.47 29.794 27.56 64.974 36.27 105.532 8.71 40.56 13.066 85.788 13.066 135.68 0 89.38-27.736 166.372-83.2 230.982 3.2 8.616 5.954 18.486 8.266 29.614 2.308 11.128 4.532 26.832 6.664 47.112 2.138 20.282 1.336 43.704-2.398 70.264-3.734 26.564-10.754 53.664-21.066 81.302l-8 1.618c-5.332 1.076-14.042 0.718-26.132-1.080-12.086-1.794-26.222-5.022-42.398-9.69-16.176-4.664-37.066-13.908-62.668-27.728-25.598-13.818-52.62-31.318-81.066-52.496-48.356 14.718-115.020 30.116-200 30.116-84.976 0-151.822-15.396-200.53-30.114-28.446 21.18-55.556 38.588-81.334 52.228-25.78 13.642-46.402 22.974-61.868 27.998-15.468 5.024-29.778 8.256-42.934 9.69-13.156 1.436-21.602 1.886-25.334 1.346-3.732-0.538-6.488-1.166-8.266-1.884-10.314-27.64-17.424-54.74-21.336-81.304-3.91-26.56-4.8-49.892-2.666-69.992 2.134-20.102 4.444-35.898 6.934-47.382 2.49-11.486 5.334-21.358 8.534-29.614-55.466-64.25-83.2-141.242-83.2-230.98zM136.536 128.596c0 58.022 21.332 110.638 64 157.856 12.8 14.406 27.646 25.312 44.534 32.712 16.89 7.402 36.088 11.606 57.6 12.606s42.044 0.8 61.6-0.6c19.556-1.402 43.734-3.302 72.534-5.702 28.798-2.404 53.688-3.602 74.666-3.602 20.976 0 45.868 1.2 74.664 3.602 28.806 2.4 52.982 4.3 72.536 5.702 19.56 1.4 40.090 1.6 61.602 0.6 21.512-1.002 40.802-5.204 57.868-12.606 17.066-7.4 32-18.306 44.8-32.712 42.664-47.218 64-99.834 64-157.856 0-34.012-3.554-64.324-10.668-90.934-7.11-26.612-16.090-48.916-26.934-66.922-10.844-18.008-26.048-33.218-45.598-45.62-19.558-12.406-38.492-22.010-56.8-28.81-18.312-6.8-41.958-12.104-70.934-15.906-28.982-3.796-54.934-6.102-77.872-6.9-22.934-0.8-51.82-1.2-86.664-1.2s-63.644 0.402-86.4 1.2c-22.756 0.798-48.622 3.104-77.6 6.9-28.978 3.802-52.622 9.104-70.934 15.906-18.31 6.802-37.244 16.404-56.8 28.81-19.556 12.404-34.756 27.612-45.6 45.62-10.846 18.006-19.824 40.31-26.934 66.922-7.11 26.61-10.666 56.922-10.666 90.934zM256 159.996c0 53.019 28.654 96 64 96s64-42.981 64-96c0-53.019-28.654-96-64-96s-64 42.981-64 96zM640 159.996c0 53.019 28.654 96 64 96s64-42.981 64-96c0-53.019-28.654-96-64-96s-64 42.981-64 96z" />
<glyph unicode="&#xe816;" glyph-name="github4" data-tags="github, brand, octacat, social" d="M512 768c-282.77 0-512-229.23-512-512s229.23-512 512-512 512 229.23 512 512-229.23 512-512 512zM816.056-48.056c-39.518-39.516-85.512-70.532-136.708-92.186-13.006-5.5-26.214-10.328-39.6-14.492v76.734c0 40.334-13.834 70-41.5 89 17.334 1.666 33.25 4 47.75 7s29.834 7.334 46 13 30.666 12.416 43.5 20.25 25.166 18 37 30.5 21.75 26.666 29.75 42.5 14.334 34.834 19 57 7 46.584 7 73.25c0 51.666-16.834 95.666-50.5 132 15.334 40 13.666 83.5-5 130.5l-12.5 1.5c-8.666 1-24.25-2.666-46.75-11s-47.75-22-75.75-41c-39.666 11-80.834 16.5-123.5 16.5-43 0-84-5.5-123-16.5-17.666 12-34.416 21.916-50.25 29.75s-28.5 13.166-38 16-18.334 4.584-26.5 5.25-13.416 0.834-15.75 0.5-4-0.666-5-1c-18.666-47.334-20.334-90.834-5-130.5-33.666-36.334-50.5-80.334-50.5-132 0-26.666 2.334-51.084 7-73.25s11-41.166 19-57 17.916-30 29.75-42.5 24.166-22.666 37-30.5 27.334-14.584 43.5-20.25 31.5-10 46-13 30.416-5.334 47.75-7c-27.334-18.666-41-48.334-41-89v-78.23c-15.098 4.494-29.98 9.804-44.6 15.988-51.194 21.654-97.188 52.67-136.706 92.186-39.516 39.518-70.534 85.512-92.186 136.708-22.398 52.958-33.756 109.262-33.756 167.348s11.358 114.39 33.758 167.35c21.654 51.194 52.67 97.188 92.186 136.706s85.512 70.534 136.706 92.186c52.96 22.4 109.264 33.758 167.35 33.758s114.39-11.358 167.35-33.758c51.196-21.654 97.19-52.67 136.708-92.186 39.516-39.516 70.532-85.512 92.186-136.706 22.398-52.96 33.756-109.264 33.756-167.35s-11.358-114.39-33.758-167.35c-21.654-51.194-52.67-97.19-92.186-136.706z" />
<glyph unicode="&#xe817;" glyph-name="linkedin" data-tags="linkedin, brand, social" d="M852 768h-680c-94.6 0-172-77.4-172-172v-680c0-94.6 77.4-172 172-172h680c94.6 0 172 77.4 172 172v680c0 94.6-77.4 172-172 172zM384-64h-128v448h128v-448zM320 448c-35.346 0-64 28.654-64 64s28.654 64 64 64 64-28.654 64-64-28.654-64-64-64zM832-64h-128v256c0 35.346-28.654 64-64 64s-64-28.654-64-64v-256h-128v448h128v-79.472c26.398 36.264 66.752 79.472 112 79.472 79.53 0 144-71.634 144-160v-288z" />
<glyph unicode="&#xe818;" glyph-name="linkedin2" data-tags="linkedin, brand, social" d="M384 384h177.106v-90.782h2.532c24.64 44.194 84.958 90.782 174.842 90.782 186.946 0 221.52-116.376 221.52-267.734v-308.266h-184.61v273.278c0 65.184-1.334 149.026-96.028 149.026-96.148 0-110.82-70.986-110.82-144.292v-278.012h-184.542v576zM64 384h192v-576h-192v576zM256 544c0-53.019-42.981-96-96-96s-96 42.981-96 96c0 53.019 42.981 96 96 96s96-42.981 96-96z" />
<glyph unicode="&#xe819;" glyph-name="stackoverflow" data-tags="stackoverflow, brand, social" d="M1024 128v-384h-1024v384h128v-256h768v256zM192 64h640v-128h-640zM207.152 202.534l27.698 124.964 624.832-138.496-27.698-124.964zM279.658 459.442l54.092 116.006 580.032-270.464-54.092-116.006zM991.722 406.524l-77.922-101.55-507.746 389.608 56.336 73.418h58.244z" />
<glyph unicode="&#xe81a;" glyph-name="google" data-tags="google" horiz-adv-x="1007" d="M998.82 350.007h-486.82v-194.728h276.984c-36.931-120.866-141.010-209.836-276.984-209.836-171.226 0-310.557 139.331-310.557 310.557s139.331 310.557 310.557 310.557c78.898 0 147.725-30.216 198.085-80.577l135.974 151.082c-87.292 80.577-203.121 130.938-334.059 130.938-282.020 0-512-229.98-512-512s229.98-512 512-512c282.020 0 495.213 229.98 495.213 512 0 31.895-3.357 63.79-8.393 94.007z" />
</font>
</defs>
</svg>
