<?xml version="1.0" encoding="utf-8"?>
<!-- Generator: Adobe Illustrator 23.0.3, SVG Export Plug-In . SVG Version: 6.00 Build 0)  -->
<svg version="1.1" id="Layer_1" xmlns="http://www.w3.org/2000/svg" xmlns:xlink="http://www.w3.org/1999/xlink" x="0px" y="0px"
	 viewBox="0 0 148.9 36.4" style="enable-background:new 0 0 148.9 36.4;" xml:space="preserve">
<style type="text/css">
	.st0{fill:#5BBB46;}
	.st1{fill:#FFFFFF;}
</style>
<g>
	<path id="cuboctahedron_8_" class="st0" d="M35.1,21.8L31.8,7.3c-0.2-0.8-0.9-1.6-1.7-1.8L14.9,0.9c-0.2-0.1-0.4-0.1-0.6-0.1
		c-0.7,0-1.3,0.3-1.8,0.6L1.6,11.5c-0.6,0.5-0.9,1.6-0.7,2.3l3.5,15.5c0.2,0.8,0.9,1.6,1.7,1.8l14.2,4.4c0.2,0.1,0.4,0.1,0.6,0.1
		c0.7,0,1.3-0.3,1.8-0.6l11.6-10.8C35,23.6,35.3,22.6,35.1,21.8z M16.5,4.3l10.4,3.2c0.4,0.1,0.4,0.3,0,0.4l-5.5,1.3
		c-0.4,0.1-1-0.1-1.3-0.4l-3.8-4.1C16,4.3,16.1,4.2,16.5,4.3z M23,23c0.1,0.4-0.2,0.7-0.6,0.5L11.2,20c-0.4-0.1-0.5-0.5-0.2-0.8
		l8.6-8c0.3-0.3,0.6-0.2,0.7,0.2L23,23z M4.4,12.8l9.1-8.5c0.3-0.3,0.8-0.3,1.1,0l4.6,4.9c0.3,0.3,0.3,0.8,0,1.1l-9.2,8.5
		c-0.3,0.3-0.8,0.3-1.1,0l-4.6-4.9C4.1,13.6,4.2,13.1,4.4,12.8z M6.7,26.2L4.2,15.6c-0.1-0.4,0.1-0.5,0.3-0.2l3.8,4.1
		c0.3,0.3,0.4,0.9,0.3,1.3l-1.6,5.4C6.9,26.7,6.8,26.7,6.7,26.2z M20,32.4L8.1,28.8c-0.4-0.1-0.6-0.6-0.5-1l2-6.4
		c0.1-0.4,0.6-0.6,1-0.5l11.9,3.7c0.4,0.1,0.6,0.6,0.5,1l-2,6.4C20.9,32.3,20.4,32.5,20,32.4z M30.6,23.8l-8,7.4
		c-0.3,0.3-0.5,0.2-0.3-0.2l1.6-5.4c0.1-0.4,0.6-0.8,1-0.9l5.5-1.3C30.8,23.3,30.9,23.5,30.6,23.8z M31.5,22.2l-6.6,1.5
		c-0.4,0.1-0.8-0.2-0.9-0.6L21.2,11c-0.1-0.4,0.2-0.8,0.6-0.9l6.6-1.5c0.4-0.1,0.8,0.2,0.9,0.6L32,21.3
		C32.1,21.7,31.9,22.1,31.5,22.2z"/>
</g>
<g>
	<path class="st1" d="M44.6,14.4l3.6-0.5L46,26.2h-3.5L44.6,14.4z M45.5,9.1l3.6-0.5l-0.7,3.7l-3.6,0.5L45.5,9.1z"/>
	<path class="st1" d="M56.4,18c0-0.1,0-0.3,0-0.4c0-0.2-0.1-0.3-0.5-0.3c-0.6,0-2.2,0.6-3.1,1.1l-1.4,7.8H48l2.1-11.7l3.1-0.5l0,1.3
		c1.9-0.9,3.4-1.4,4.7-1.4c1.6,0,2.2,0.9,2.2,2.4c0,0.4,0,0.8-0.1,1.4l-1.5,8.5H55L56.4,18z"/>
	<path class="st1" d="M59.4,29.2c1.2-1.2,1.4-1.9,1.6-3l1.6-9.2h-1.7l0.5-2.8h1.7l0.3-1.6C63.9,9.8,65,8.7,68,8.7
		c1,0,2.7,0.2,4.2,0.6l3.6-0.6l-3.1,17.5h-3.5L71.8,12c-0.9-0.2-2.6-0.4-3.7-0.4c-0.8,0-1,0.2-1.2,0.8l-0.3,1.8h3.1L69,17h-2.9
		l-1.7,9.6c-0.3,1.7-0.9,2.9-2.8,4.7L59.4,29.2z"/>
	<path class="st1" d="M78.9,22.3c0,0.1,0,0.3,0,0.4c0,0.2,0.1,0.4,0.5,0.4c0.6,0,2.2-0.7,3.1-1.1l1.3-7.5l3.6-0.5l-2.2,12.3h-3
		l0-1.1c-1.9,0.9-3.4,1.4-4.7,1.4c-1.6,0-2.2-0.9-2.2-2.4c0-0.5,0-0.9,0.1-1.4l1.4-8.2l3.6-0.5L78.9,22.3z"/>
	<path class="st1" d="M92.5,23.2l-2.5,3h-3.7l4.8-6.1l-2.6-5.7l3.3-0.5l1.6,4l2.6-3.8h3.7l-4.8,6.5l2.5,5.6h-3.5L92.5,23.2z"/>
	<path class="st0" d="M110.7,26.2l-0.1-1c-0.9,0.7-2.1,1.3-3.8,1.3c-2.6,0-3.3-1.6-2.8-4.3l0.6-3.2c0.5-2.9,1.2-5,6.3-5
		c0.4,0,1.1,0,1.5,0.1l0.8-4.8l3.6-0.5l-3.1,17.5H110.7z M107.4,22.6c-0.1,0.6,0,0.9,0.7,0.9c1.2,0,2.1-0.6,2.8-1.2l0.9-5.4
		c-0.4-0.1-0.9-0.1-1.4-0.1c-1.8,0-2.2,1-2.4,2.1L107.4,22.6z"/>
	<path class="st0" d="M122.7,26.2l-0.1-1c-0.8,0.6-2.1,1.3-3.8,1.3c-2.6,0-3.1-1.6-2.7-4.3l0.6-3.2c0.5-2.9,1.6-5,6.4-5
		c1.3,0,2.9,0.2,4.6,0.7l-2,11.5H122.7z M119.5,22.5c-0.1,0.6,0,0.9,0.7,0.9c0.9,0,1.9-0.5,2.6-1.2l0.9-5.2c-0.5-0.1-1-0.1-1.4-0.1
		c-1.8,0-2,0.9-2.2,2.1L119.5,22.5z"/>
	<path class="st0" d="M129,31.5l-0.9-2.7c1.7-0.6,2.7-1.4,3.6-2.6h-1.1l-1.7-11.7l3.5-0.5l0.9,9l2.5-6c0.2-0.6,0.3-1.1,0.3-1.5
		c0-0.4,0-0.7-0.1-1l3.4-0.5c0.1,0.3,0.2,0.9,0.2,1.5c0,0.7-0.1,1.5-0.4,2.2l-3.9,8.6C133.9,29,132.7,30.3,129,31.5z"/>
	<path class="st0" d="M138.6,25.6l0.7-2.6c0.9,0.3,2,0.6,3.3,0.6c1.2,0,1.2-0.3,1.3-0.9c0.1-0.5-0.2-0.8-1.6-1.6
		c-2.5-1.3-2.6-2.2-2.3-4c0.5-2.6,1.2-3.3,4.6-3.3c1.1,0,2.6,0.2,3.6,0.6l-0.6,2.6c-0.9-0.2-2.2-0.4-3-0.4c-1,0-1.2,0.1-1.3,0.8
		c-0.1,0.6,0,0.7,1.2,1.3c2.8,1.5,3.2,2,2.8,3.9c-0.5,2.7-1.3,3.8-4.9,3.8C141.3,26.4,139.7,26.1,138.6,25.6z"/>
</g>
<polygon class="st0" points="104.3,5.2 103.5,5.2 98.2,35.9 99,35.9 "/>
</svg>
