<svg version="1.1" id="Layer_1" xmlns="http://www.w3.org/2000/svg" xmlns:xlink="http://www.w3.org/1999/xlink" x="0px" y="0px"
	 viewBox="0 0 600 400" style="display:block; margin:0 auto; width:100%; max-width:600px; enable-background:new 0 0 600 400;" xml:space="preserve">
<style type="text/css">
	.st0{fill:#565666;}
	.st1{fill:none;stroke:#FF4D9E;stroke-width:2;stroke-miterlimit:10;}
	.st2{fill:#FF4D9E;}
	.st3{font-family:Roboto, sans-serif; font-weight:bold;}
	.st4{font-size:18px;}
	.st5{fill:#34C687;}
	.st6{fill:#FFFFFF;}
	.st7{fill:#16A55A;}
</style>
<g>
	<path class="st0" d="M181,192l0-10.9l55.6-55.6c-0.8-0.3-1.7-0.4-2.6-0.4H50c-4.4,0-8,3.6-8,8v184c0,4.4,3.6,8,8,8h184
		c4.4,0,8-3.6,8-8V133c0-0.5-0.1-1-0.1-1.5L181,192z"/>
	<g>
		<g>
			<g>
				<line class="st1" x1="315.4" y1="52.3" x2="179.9" y2="187.9"/>
				<g>
					<polygon class="st2" points="310,49.3 321.5,46.2 318.4,57.8 					"/>
				</g>
			</g>
		</g>
		<text transform="matrix(0.7071 -0.7071 0.7071 0.7071 244.2631 114.2094)" class="st2 st3 st4">Alert Data</text>
	</g>
	<g>
		<path class="st5" d="M121,161H42c0,0,0,0,0,0v-28c0-4.4,3.6-8,8-8h79c0,0,0,0,0,0v28C129,157.5,125.4,161,121,161z"/>
		<text transform="matrix(1 0 0 1 56.7678 149.0846)" class="st6 st3 st4">node-1</text>
		<g>
			<path class="st6" d="M178,281h-75.6c-1.7,0-3-1.3-3-3v-75.4l29.1-29.4H178c1.7,0,3,1.3,3,3V278C181,279.7,179.7,281,178,281z"/>
			<path class="st5" d="M125.5,202.2H99.4l29.1-29.1v26.1C128.5,200.8,127.1,202.2,125.5,202.2z"/>
			<text transform="matrix(1 0 0 1 107.6931 235.571)" class="st7 st3 st4">.slack( )</text>
		</g>
	</g>
</g>
<g>
	<path class="st0" d="M437.8,192l0-10.9l55.6-55.6c-0.8-0.3-1.7-0.4-2.6-0.4h-184c-4.4,0-8,3.6-8,8v184c0,4.4,3.6,8,8,8h184
		c4.4,0,8-3.6,8-8V133c0-0.5-0.1-1-0.1-1.5L437.8,192z"/>
	<g>
		<g>
			<g>
				<line class="st1" x1="572.2" y1="52.3" x2="436.6" y2="187.9"/>
				<g>
					<polygon class="st2" points="566.7,49.3 578.3,46.2 575.2,57.8 					"/>
				</g>
			</g>
		</g>
		<text transform="matrix(0.7071 -0.7071 0.7071 0.7071 501.0453 114.2094)" class="st2 st3 st4">Alert Data</text>
	</g>
	<g>
		<path class="st5" d="M377.8,161h-79c0,0,0,0,0,0v-28c0-4.4,3.6-8,8-8h79c0,0,0,0,0,0v28C385.8,157.5,382.2,161,377.8,161z"/>
		<text transform="matrix(1 0 0 1 313.55 149.0846)" class="st6 st3 st4">node-2</text>
		<g>
			<path class="st6" d="M434.8,281h-75.6c-1.7,0-3-1.3-3-3v-75.4l29.1-29.4h49.5c1.7,0,3,1.3,3,3V278
				C437.8,279.7,436.5,281,434.8,281z"/>
			<path class="st5" d="M382.3,202.2h-26.1l29.1-29.1v26.1C385.3,200.8,383.9,202.2,382.3,202.2z"/>
			<text transform="matrix(1 0 0 1 364.4753 235.571)" class="st7 st3 st4">.slack( )</text>
		</g>
	</g>
</g>
</svg>
